<?xml version="1.0" encoding="UTF-8" standalone="no"?>
<!DOCTYPE svg PUBLIC "-//W3C//DTD SVG 1.1//EN" "http://www.w3.org/Graphics/SVG/1.1/DTD/svg11.dtd">
<svg width="100%" height="100%" viewBox="-11 0 316 316" version="1.1" xmlns="http://www.w3.org/2000/svg" xmlns:xlink="http://www.w3.org/1999/xlink" xml:space="preserve" xmlns:serif="http://www.serif.com/" style="fill-rule:evenodd;clip-rule:evenodd;stroke-linejoin:round;stroke-miterlimit:2;">
    <rect x="-20" y="-20" width="356" height="356" fill="white"/>
    <g id="Artboard1" transform="matrix(0.330388,0,0,0.513634,-121.744969,-46.85015)">
        <rect x="368.491" y="91.213" width="889.316" height="614.157" style="fill:none;"/>
        <g transform="matrix(3.026744,0,0,1.94691,143.418816,-379.566819)">
            <path d="M237.159,402.251C237.259,395.456 237.415,379.362 238.199,363.487C238.795,351.402 240.17,339.098 239.73,333.147C239.336,327.812 235.07,322.487 231.052,319.648C227.034,316.809 220.896,315.893 215.624,316.112C207.91,316.434 193.126,318.684 184.769,321.576C177.632,324.047 169.127,328.701 165.484,333.469C162.062,337.948 162.806,342.682 161.949,348.254C161.092,353.825 167.091,386.823 167.091,386.823C167.091,386.823 172.079,420.642 174.162,437.606C176.412,455.926 179.358,481.211 180.591,496.746C181.489,508.071 180.108,522.405 181.555,530.815C182.578,536.767 185.465,543.35 189.269,547.207C193.072,551.064 198.975,552.836 204.375,553.957C210.053,555.135 217.493,555.167 223.338,554.278C228.964,553.423 235.136,552.089 239.447,548.627C243.759,545.164 248.636,539.477 249.208,533.505C249.98,525.446 245.793,511.35 244.081,500.273C242.269,488.547 238.846,470.16 238.334,463.147C238.197,461.275 239.321,457.316 241.008,458.192C242.055,458.735 243.442,458.832 245.344,460.82C247.856,463.445 250.858,468.1 252.908,470.711C260.919,480.914 278.937,507.285 288.906,519.244C296.006,527.761 305.973,537.753 312.723,542.467C317.487,545.794 323.785,547.114 329.404,547.529C335.023,547.944 341.403,547.368 346.439,544.957C351.474,542.547 356.363,537.832 359.617,533.065C362.87,528.299 366.603,522.09 365.961,516.358C365.318,510.626 360.536,503.521 355.76,498.674C347.417,490.209 328.333,476.443 315.905,465.569C304.037,455.185 287.136,439.522 281.192,433.428C280.138,432.347 279.406,430.256 280.243,429C281.958,426.429 287.466,421.372 291.477,418C301.277,409.762 327.414,389.536 339.039,379.572C346.832,372.892 356.636,364.3 361.224,358.217C364.447,353.944 367.068,348.036 366.567,343.073C366.294,340.365 366.003,337.811 364.729,334.313C363.327,330.463 360.343,326.664 357.779,324.083C352.886,319.156 343.561,315.429 336.715,314.499C329.975,313.583 322.697,315.282 316.705,318.501C309.613,322.31 301.076,330.411 294.166,337.353C286.565,344.989 278.406,355.014 271.101,364.315C263.113,374.485 251.207,391.627 246.24,398.373C244.64,400.547 242.565,403.694 241.304,404.791C240.64,405.368 239.361,405.379 238.671,404.956C237.98,404.532 237.144,403.284 237.159,402.251Z" style="fill:rgb(252,56,78);"/>
        </g>
        <g transform="matrix(3.026744,0,0,1.94691,143.418816,-379.566819)">
            <g transform="matrix(-0.878213,-0.781105,0.781105,-0.878213,1325.95023,2031.178595)">
                <path d="M1709.257,387.706C1712.593,383.898 1720.558,374.641 1725.029,370.046C1728.48,366.5 1733.107,361.857 1736.084,360.138C1738.052,359.001 1740.925,359.149 1742.891,359.733C1744.857,360.317 1746.733,361.869 1747.879,363.643C1749.07,365.485 1750.171,368.484 1750.036,370.788C1749.901,373.092 1748.801,375.752 1747.071,377.467C1744.621,379.894 1739.235,382.696 1735.342,385.347C1730.938,388.346 1724.524,392.784 1720.648,395.458C1717.79,397.429 1714.334,400.491 1712.088,401.389C1710.556,402.002 1708.448,401.547 1707.167,400.85C1705.886,400.154 1704.763,398.536 1704.403,397.21C1704.044,395.885 1704.35,394.19 1705.01,392.896C1705.819,391.312 1707.783,389.388 1709.257,387.706Z" style="fill:rgb(252,56,78);"/>
            </g>
            <g transform="matrix(-0.25735,-1.146801,1.146801,-0.25735,132.812983,2379.186004)">
                <path d="M1709.257,387.706C1712.593,383.898 1720.558,374.641 1725.029,370.046C1728.48,366.5 1733.107,361.857 1736.084,360.138C1738.052,359.001 1740.925,359.149 1742.891,359.733C1744.857,360.317 1746.733,361.869 1747.879,363.643C1749.07,365.485 1750.171,368.484 1750.036,370.788C1749.901,373.092 1748.801,375.752 1747.071,377.467C1744.621,379.894 1739.235,382.696 1735.342,385.347C1730.938,388.346 1724.524,392.784 1720.648,395.458C1717.79,397.429 1714.334,400.491 1712.088,401.389C1710.556,402.002 1708.448,401.547 1707.167,400.85C1705.886,400.154 1704.763,398.536 1704.403,397.21C1704.044,395.885 1704.35,394.19 1705.01,392.896C1705.819,391.312 1707.783,389.388 1709.257,387.706Z" style="fill:rgb(252,56,78);"/>
            </g>
            <g transform="matrix(0.406833,-1.102665,1.102665,0.406833,-954.838238,2022.994409)">
                <path d="M1709.257,387.706C1712.593,383.898 1720.558,374.641 1725.029,370.046C1728.48,366.5 1733.107,361.857 1736.084,360.138C1738.052,359.001 1740.925,359.149 1742.891,359.733C1744.857,360.317 1746.733,361.869 1747.879,363.643C1749.07,365.485 1750.171,368.484 1750.036,370.788C1749.901,373.092 1748.801,375.752 1747.071,377.467C1744.621,379.894 1739.235,382.696 1735.342,385.347C1730.938,388.346 1724.524,392.784 1720.648,395.458C1717.79,397.429 1714.334,400.491 1712.088,401.389C1710.556,402.002 1708.448,401.547 1707.167,400.85C1705.886,400.154 1704.763,398.536 1704.403,397.21C1704.044,395.885 1704.35,394.19 1705.01,392.896C1705.819,391.312 1707.783,389.388 1709.257,387.706Z" style="fill:rgb(252,56,78);"/>
            </g>
        </g>
    </g>
</svg>
