<?xml version="1.0" encoding="UTF-8" standalone="no"?><!DOCTYPE svg PUBLIC "-//W3C//DTD SVG 1.1//EN" "http://www.w3.org/Graphics/SVG/1.1/DTD/svg11.dtd"><svg width="100%" height="100%" viewBox="0 0 123 123" version="1.1" xmlns="http://www.w3.org/2000/svg" xmlns:xlink="http://www.w3.org/1999/xlink" xml:space="preserve" xmlns:serif="http://www.serif.com/" style="fill-rule:evenodd;clip-rule:evenodd;stroke-linejoin:round;stroke-miterlimit:2;"><path d="M122.88,26.616l0,69.648c0,14.69 -11.926,26.616 -26.616,26.616l-69.648,0c-14.69,0 -26.616,-11.926 -26.616,-26.616l-0,-69.648c0,-14.69 11.926,-26.616 26.616,-26.616l69.648,0c14.69,0 26.616,11.926 26.616,26.616Z" style="fill:#fff;"/><clipPath id="_clip1"><rect x="14.844" y="12.905" width="90.311" height="97.069"/></clipPath><g clip-path="url(#_clip1)"><g id="Artboard1"><rect x="14.844" y="12.905" width="90.256" height="96.901" style="fill:none;"/><g><path d="M64.853,62.19c0.031,-2.087 0.079,-7.031 0.319,-11.908c0.183,-3.712 0.605,-7.492 0.47,-9.32c-0.121,-1.639 -1.431,-3.275 -2.666,-4.147c-1.234,-0.872 -3.12,-1.153 -4.739,-1.086c-2.37,0.099 -6.911,0.79 -9.478,1.678c-2.192,0.759 -4.805,2.189 -5.924,3.653c-1.051,1.376 -0.823,2.83 -1.086,4.542c-0.263,1.711 1.58,11.848 1.58,11.848c0,0 1.532,10.389 2.172,15.6c0.691,5.628 1.596,13.395 1.975,18.167c0.276,3.479 -0.148,7.882 0.296,10.465c0.314,1.828 1.201,3.851 2.37,5.035c1.168,1.185 2.982,1.729 4.64,2.073c1.744,0.362 4.03,0.372 5.825,0.099c1.728,-0.263 3.624,-0.672 4.948,-1.736c1.325,-1.064 2.823,-2.811 2.998,-4.645c0.237,-2.476 -1.049,-6.806 -1.575,-10.208c-0.557,-3.602 -1.608,-9.25 -1.765,-11.404c-0.042,-0.575 0.303,-1.791 0.821,-1.522c0.322,0.167 0.748,0.197 1.332,0.807c0.772,0.806 1.694,2.236 2.324,3.038c2.461,3.134 7.996,11.235 11.058,14.908c2.181,2.616 5.243,5.686 7.316,7.134c1.463,1.022 3.398,1.427 5.124,1.555c1.726,0.127 3.686,-0.049 5.233,-0.79c1.547,-0.74 3.048,-2.189 4.048,-3.653c0.999,-1.464 2.146,-3.371 1.949,-5.132c-0.198,-1.761 -1.666,-3.943 -3.134,-5.432c-2.563,-2.6 -8.425,-6.829 -12.243,-10.169c-3.646,-3.19 -8.837,-8.001 -10.663,-9.873c-0.324,-0.332 -0.549,-0.974 -0.292,-1.36c0.527,-0.79 2.219,-2.343 3.451,-3.379c3.01,-2.531 11.039,-8.744 14.61,-11.804c2.394,-2.052 5.405,-4.691 6.815,-6.56c0.99,-1.313 1.795,-3.127 1.641,-4.652c-0.084,-0.832 -0.173,-1.616 -0.565,-2.691c-0.431,-1.183 -1.347,-2.35 -2.135,-3.142c-1.503,-1.513 -4.368,-2.658 -6.47,-2.944c-2.07,-0.281 -4.306,0.241 -6.147,1.229c-2.179,1.17 -4.801,3.659 -6.924,5.791c-2.335,2.346 -4.841,5.425 -7.085,8.282c-2.454,3.124 -6.111,8.39 -7.637,10.462c-0.491,0.668 -1.129,1.635 -1.516,1.971c-0.204,0.177 -0.597,0.181 -0.809,0.051c-0.212,-0.13 -0.469,-0.514 -0.464,-0.831Z" style="fill:#fc384e;"/></g><g><g><path d="M31.228,47.854c-1.814,0.227 -6.184,0.813 -8.492,0.98c-1.782,0.129 -4.144,0.271 -5.36,0.02c-0.804,-0.165 -1.543,-0.895 -1.934,-1.524c-0.39,-0.629 -0.524,-1.498 -0.407,-2.252c0.121,-0.783 0.543,-1.856 1.132,-2.445c0.589,-0.589 1.524,-1.043 2.402,-1.09c1.243,-0.067 3.369,0.47 5.055,0.688c1.908,0.248 4.703,0.589 6.39,0.798c1.244,0.154 2.911,0.157 3.732,0.454c0.56,0.202 1.02,0.831 1.198,1.326c0.179,0.495 0.093,1.201 -0.128,1.645c-0.221,0.444 -0.71,0.827 -1.199,1.018c-0.598,0.233 -1.59,0.281 -2.391,0.381Z" style="fill:#fc384e;"/></g><g><path d="M34.257,36.688c-1.605,-0.874 -5.496,-2.948 -7.468,-4.16c-1.522,-0.935 -3.523,-2.198 -4.364,-3.111c-0.556,-0.603 -0.731,-1.627 -0.681,-2.366c0.05,-0.739 0.449,-1.522 0.983,-2.066c0.555,-0.565 1.524,-1.19 2.346,-1.325c0.822,-0.135 1.846,0.043 2.587,0.517c1.049,0.671 2.462,2.347 3.703,3.509c1.405,1.314 3.475,3.223 4.723,4.377c0.92,0.851 2.272,1.826 2.766,2.547c0.337,0.491 0.343,1.27 0.199,1.776c-0.144,0.506 -0.625,1.03 -1.064,1.261c-0.438,0.231 -1.06,0.257 -1.568,0.127c-0.622,-0.16 -1.455,-0.7 -2.164,-1.086Z" style="fill:#fc384e;"/></g><g><path d="M43.625,29.548c-0.873,-1.606 -3.013,-5.461 -4.011,-7.549c-0.77,-1.612 -1.764,-3.76 -1.974,-4.983c-0.139,-0.809 0.27,-1.763 0.714,-2.356c0.444,-0.593 1.204,-1.034 1.948,-1.201c0.773,-0.173 1.926,-0.171 2.69,0.162c0.764,0.334 1.527,1.039 1.892,1.839c0.516,1.133 0.792,3.308 1.203,4.958c0.465,1.867 1.167,4.594 1.588,6.241c0.31,1.214 0.916,2.768 0.939,3.641c0.016,0.596 -0.401,1.253 -0.798,1.599c-0.396,0.347 -1.084,0.525 -1.578,0.481c-0.494,-0.044 -1.03,-0.359 -1.385,-0.745c-0.435,-0.472 -0.842,-1.378 -1.227,-2.087Z" style="fill:#fc384e;"/></g></g></g></g></svg>