<?xml version="1.0" encoding="UTF-8" standalone="no"?>
<!DOCTYPE svg PUBLIC "-//W3C//DTD SVG 1.1//EN" "http://www.w3.org/Graphics/SVG/1.1/DTD/svg11.dtd">
<svg width="100%" height="100%" viewBox="0 0 845 516" version="1.1" xmlns="http://www.w3.org/2000/svg" xmlns:xlink="http://www.w3.org/1999/xlink" xml:space="preserve" xmlns:serif="http://www.serif.com/" style="fill-rule:evenodd;clip-rule:evenodd;stroke-linejoin:round;stroke-miterlimit:2;">
    <g id="Artboard1" transform="matrix(0.949327,0,0,0.838587,-349.818241,-76.49004)">
        <rect x="368.491" y="91.213" width="889.316" height="614.157" style="fill:none;"/>
        <g transform="matrix(1.041665,-0.177335,0.156649,1.179223,230.22323,-166.300129)">
            <path d="M237.159,402.251C237.259,395.456 237.415,379.362 238.199,363.487C238.795,351.402 240.17,339.098 239.73,333.147C239.336,327.812 235.07,322.487 231.052,319.648C227.034,316.809 220.896,315.893 215.624,316.112C207.91,316.434 193.126,318.684 184.769,321.576C177.632,324.047 169.127,328.701 165.484,333.469C162.062,337.948 162.806,342.682 161.949,348.254C161.092,353.825 167.091,386.823 167.091,386.823C167.091,386.823 172.079,420.642 174.162,437.606C176.412,455.926 179.358,481.211 180.591,496.746C181.489,508.071 180.108,522.405 181.555,530.815C182.578,536.767 185.465,543.35 189.269,547.207C193.072,551.064 198.975,552.836 204.375,553.957C210.053,555.135 217.493,555.167 223.338,554.278C228.964,553.423 235.136,552.089 239.447,548.627C243.759,545.164 248.636,539.477 249.208,533.505C249.98,525.446 245.793,511.35 244.081,500.273C242.269,488.547 238.846,470.16 238.334,463.147C238.197,461.275 239.321,457.316 241.008,458.192C242.055,458.735 243.442,458.832 245.344,460.82C247.856,463.445 250.858,468.1 252.908,470.711C260.919,480.914 278.937,507.285 288.906,519.244C296.006,527.761 305.973,537.753 312.723,542.467C317.487,545.794 323.785,547.114 329.404,547.529C335.023,547.944 341.403,547.368 346.439,544.957C351.474,542.547 356.363,537.832 359.617,533.065C362.87,528.299 366.603,522.09 365.961,516.358C365.318,510.626 360.536,503.521 355.76,498.674C347.417,490.209 328.333,476.443 315.905,465.569C304.037,455.185 287.136,439.522 281.192,433.428C280.138,432.347 279.406,430.256 280.243,429C281.958,426.429 287.466,421.372 291.477,418C301.277,409.762 327.414,389.536 339.039,379.572C346.832,372.892 356.636,364.3 361.224,358.217C364.447,353.944 367.068,348.036 366.567,343.073C366.294,340.365 366.003,337.811 364.729,334.313C363.327,330.463 360.343,326.664 357.779,324.083C352.886,319.156 343.561,315.429 336.715,314.499C329.975,313.583 322.697,315.282 316.705,318.501C309.613,322.31 301.076,330.411 294.166,337.353C286.565,344.989 278.406,355.014 271.101,364.315C263.113,374.485 251.207,391.627 246.24,398.373C244.64,400.547 242.565,403.694 241.304,404.791C240.64,405.368 239.361,405.379 238.671,404.956C237.98,404.532 237.144,403.284 237.159,402.251Z" style="fill:rgb(252,56,78);"/>
        </g>
        <g transform="matrix(0.985847,0,0,1.116033,336.922677,-171.243068)">
            <path d="M475.584,379.542C486.512,384.127 497.351,392.123 505.099,401.295C512.846,410.467 519.07,422.533 522.069,434.575C525.069,446.617 525.498,460.839 523.098,473.548C520.698,486.258 514.57,500.975 507.67,510.832C501.182,520.101 491.385,527.717 481.7,532.688C472.015,537.659 459.973,540.18 449.559,540.659C439.314,541.13 428.217,538.561 419.218,535.562C410.697,532.721 402.419,528.367 395.562,522.66C388.705,516.953 382.638,509.304 378.077,501.318C373.255,492.876 368.537,482.205 366.629,472.006C364.721,461.806 364.087,450.441 366.629,440.122C369.419,428.791 376.229,413.706 383.374,404.021C390.134,394.857 400.139,387.05 409.498,382.01C418.637,377.089 429.158,374.17 439.531,373.782C450.545,373.371 464.656,374.956 475.584,379.542ZM469.547,434.575C467.372,430.421 464,426.476 460.279,423.993C456.557,421.509 451.795,419.954 447.219,419.674C442.62,419.394 436.963,419.87 432.685,422.307C428.033,424.958 422.398,430.154 419.309,435.578C416.22,441.002 414.337,448.203 414.148,454.851C413.955,461.662 415.781,470.649 418.151,476.442C420.254,481.583 424.417,486.605 428.367,489.607C432.168,492.496 437.075,494.29 441.848,494.452C447.026,494.627 454.343,493.828 459.436,490.66C464.544,487.483 469.878,481.554 472.496,475.389C475.164,469.105 475.936,459.758 475.445,452.956C474.981,446.538 472.074,439.402 469.547,434.575Z" style="fill:rgb(255,132,1);"/>
        </g>
        <g transform="matrix(1.053378,0,0,1.192483,295.18135,-200.978106)">
            <path d="M601.078,393.932C602.394,382.879 606.7,347.196 608.154,334.195C608.833,328.12 610.321,321.222 609.8,315.929C609.332,311.181 608.225,305.976 605.027,302.435C601.674,298.721 595.377,295.169 589.682,293.649C583.621,292.03 574.851,292.139 568.659,292.726C563.108,293.252 556.591,295.359 552.532,297.169C549.355,298.586 546.361,300.926 544.304,303.587C542.247,306.247 540.86,309.732 540.19,313.131C539.422,317.026 539.669,322.344 539.696,326.955C539.833,350.185 540.491,422.593 541.012,452.516C541.326,470.516 542.055,495.083 542.823,506.492C543.153,511.398 544.057,516.613 545.62,520.974C547.129,525.182 549.095,529.444 552.203,532.658C555.384,535.948 560.595,538.823 564.709,540.715C568.53,542.472 572.692,543.724 576.887,544.013C582.482,544.398 592.249,544.323 598.28,543.025C603.585,541.884 609.244,538.983 613.071,536.226C616.509,533.748 619.564,529.958 621.24,526.484C622.872,523.102 623.143,518.793 623.129,515.379C623.116,512.184 622.415,508.394 621.154,505.999C619.991,503.789 617.79,502.142 615.564,501.009C613.171,499.792 609.107,499.648 606.8,498.695C604.917,497.917 603.084,496.808 601.724,495.291C600.285,493.686 598.797,491.371 598.168,489.066C597.292,485.858 596.634,480.421 596.47,476.048C596.214,469.244 596.171,457.496 596.635,448.237C597.265,435.648 599.514,409.565 600.255,400.514C600.435,398.31 600.816,396.127 601.078,393.932Z" style="fill:rgb(254,192,3);"/>
        </g>
        <g transform="matrix(0.988455,0,0,1.118986,582.26512,-180.191771)">
            <path d="M475.584,379.542C486.512,384.127 497.351,392.123 505.099,401.295C512.846,410.467 519.07,422.533 522.069,434.575C525.069,446.617 525.498,460.839 523.098,473.548C520.698,486.258 514.57,500.975 507.67,510.832C501.182,520.101 491.385,527.717 481.7,532.688C472.015,537.659 459.973,540.18 449.559,540.659C439.314,541.13 428.217,538.561 419.218,535.562C410.697,532.721 402.419,528.367 395.562,522.66C388.705,516.953 382.638,509.304 378.077,501.318C373.255,492.876 368.537,482.205 366.629,472.006C364.721,461.806 366.144,446.327 368.686,436.007C371.477,424.677 376.229,413.706 383.374,404.021C390.134,394.857 400.139,387.05 409.498,382.01C418.637,377.089 429.158,374.17 439.531,373.782C450.545,373.371 464.656,374.956 475.584,379.542ZM469.547,434.575C467.372,430.421 464,426.476 460.279,423.993C456.557,421.509 451.795,419.954 447.219,419.674C442.62,419.394 436.963,419.87 432.685,422.307C428.033,424.958 422.398,430.154 419.309,435.578C416.22,441.002 414.337,448.203 414.148,454.851C413.955,461.662 415.781,470.649 418.151,476.442C420.254,481.583 424.417,486.605 428.367,489.607C432.168,492.496 437.075,494.29 441.848,494.452C447.026,494.627 454.343,493.828 459.436,490.66C464.544,487.483 469.878,481.554 472.496,475.389C475.164,469.105 475.936,459.758 475.445,452.956C474.981,446.538 472.074,439.402 469.547,434.575Z" style="fill:rgb(87,186,42);"/>
        </g>
        <g transform="matrix(1.049283,0.105049,-0.092795,1.187847,322.104061,-291.839836)">
            <path d="M848.466,398.444C848.466,398.444 849.59,387.877 848.361,384.015C847.212,380.405 844.306,377.135 841.094,375.274C837.882,373.413 833.17,372.886 829.087,372.852C824.962,372.816 819.889,373.87 816.344,375.063C813.228,376.112 809.994,377.553 807.813,380.013C805.619,382.488 803.518,386.255 803.179,389.913C802.486,397.379 802.271,411.05 801.501,426.776C800.979,437.425 799.764,448.902 799.06,460.471C797.511,485.919 795.176,510.856 794.648,521.879C794.508,524.803 795.385,528.058 796.228,530.516C796.987,532.732 798.054,534.96 799.703,536.624C801.581,538.52 804.534,540.864 807.497,541.89C811.148,543.156 816.846,544.404 821.61,544.216C826.595,544.02 833.493,542.84 837.408,540.715C840.931,538.802 843.516,534.743 845.096,531.464C846.626,528.286 846.712,524.559 846.887,521.037C847.343,511.804 846.887,488.581 847.834,476.065C848.602,465.93 850.327,453.595 852.574,445.944C854.268,440.173 858.296,433.968 861.315,430.159C863.746,427.092 867.757,424.32 870.689,423.089C873.215,422.028 876.955,422.089 878.904,422.773C880.673,423.395 881.841,425.401 882.379,427.197C882.959,429.128 882.081,432.287 882.379,434.358C882.644,436.194 883.173,438.061 884.17,439.624C885.188,441.222 886.602,443.175 888.488,443.943C891.033,444.978 895.759,446.251 899.441,445.838C903.356,445.4 908.429,443.732 911.974,441.31C915.52,438.887 918.557,435.143 920.716,431.304C922.875,427.465 924.402,422.522 924.929,418.274C925.441,414.138 925.109,409.797 923.875,405.817C922.471,401.283 919.238,394.846 916.5,391.072C914.148,387.83 910.657,385.279 907.446,383.173C904.306,381.114 900.882,379.3 897.229,378.433C893.087,377.451 886.961,377.012 882.59,377.275C878.629,377.514 874.498,378.767 871.005,380.013C867.707,381.19 864.457,382.734 861.631,384.753C858.805,386.771 856.242,389.843 854.048,392.125C852.1,394.151 848.466,398.444 848.466,398.444Z" style="fill:rgb(1,160,249);"/>
        </g>
        <g transform="matrix(0.838771,-0.15445,0.136433,0.949535,-316.592545,310.733541)">
            <path d="M1062.141,329.281C1069.72,332.375 1077.007,336.76 1082.828,342.515C1088.967,348.584 1095.461,356.96 1098.978,365.696C1102.655,374.831 1104.622,386.997 1104.892,397.323C1105.158,407.53 1103.028,418.907 1100.596,427.652C1098.416,435.493 1095.24,443.321 1090.302,449.79C1085.002,456.735 1076.731,464.621 1068.796,469.319C1060.908,473.99 1051.039,476.711 1042.694,477.982C1034.789,479.185 1024.791,477.913 1018.727,476.94C1014.346,476.237 1006.31,472.143 1006.31,472.143C1006.31,472.143 1007.362,485.687 1007.865,492.461C1008.525,501.346 1010.912,517.819 1010.268,525.453C1009.868,530.19 1007.402,534.96 1004,538.263C1000.597,541.566 994.995,544.15 989.853,545.27C984.64,546.406 977.248,546.035 972.719,545.078C968.977,544.287 965.248,541.943 962.678,539.527C960.141,537.143 958.336,533.751 957.295,530.578C956.254,527.405 956.548,523.862 956.431,520.488C956.115,511.435 955.715,491.004 955.402,476.262C954.975,456.103 953.802,420.65 953.232,399.535C952.782,382.877 951.723,359.974 951.98,349.577C952.086,345.283 953.421,340.438 955.402,337.155C957.325,333.969 960.398,331.224 963.866,329.875C970.037,327.475 982.688,323.939 992.429,322.756C1003.732,321.383 1020.067,320.551 1031.685,321.638C1042.107,322.614 1053.618,325.802 1062.141,329.281ZM1004.929,430.367C1004.929,430.367 1012.984,433.57 1017.23,434.243C1021.752,434.959 1027.439,435.538 1032.06,434.664C1036.671,433.792 1041.276,431.919 1044.951,429C1048.911,425.854 1053.559,420.632 1055.82,415.791C1058.081,410.949 1058.781,405.3 1058.516,399.95C1058.249,394.558 1056.522,387.826 1054.219,383.436C1052.1,379.397 1048.195,375.954 1044.698,373.609C1041.315,371.34 1037.254,370.052 1033.239,369.365C1028.689,368.588 1022.356,368.593 1017.399,368.944C1012.701,369.277 1003.497,371.472 1003.497,371.472C1003.497,371.472 1003.208,390.964 1003.443,400.626C1003.682,410.442 1004.929,430.367 1004.929,430.367Z" style="fill:rgb(124,58,237);"/>
        </g>
        <g transform="matrix(0.849795,0,0,0.962015,380.404022,140.552904)">
            <path d="M848.466,398.444C848.466,398.444 849.59,387.877 848.361,384.015C847.212,380.405 844.306,377.135 841.094,375.274C837.882,373.413 833.17,372.886 829.087,372.852C824.962,372.816 819.889,373.87 816.344,375.063C813.228,376.112 809.994,377.553 807.813,380.013C805.619,382.488 803.518,386.255 803.179,389.913C802.486,397.379 802.271,411.05 801.501,426.776C800.979,437.425 799.764,448.902 799.06,460.471C797.511,485.919 795.176,510.856 794.648,521.879C794.508,524.803 795.385,528.058 796.228,530.516C796.987,532.732 798.054,534.96 799.703,536.624C801.581,538.52 804.534,540.864 807.497,541.89C811.148,543.156 816.846,544.404 821.61,544.216C826.595,544.02 833.493,542.84 837.408,540.715C840.931,538.802 843.516,534.743 845.096,531.464C846.626,528.286 846.712,524.559 846.887,521.037C847.343,511.804 846.887,488.581 847.834,476.065C848.602,465.93 850.327,453.595 852.574,445.944C854.268,440.173 858.296,433.968 861.315,430.159C863.746,427.092 867.757,424.32 870.689,423.089C873.215,422.028 876.978,422.115 878.904,422.773C880.613,423.357 881.73,425.307 882.245,427.038C882.801,428.913 881.946,431.957 882.245,434.021C882.516,435.899 883.001,437.832 884.035,439.422C885.132,441.109 886.755,443.283 888.825,444.145C891.393,445.214 895.884,446.274 899.441,445.838C903.299,445.366 908.429,443.732 911.974,441.31C915.52,438.887 918.557,435.143 920.716,431.304C922.875,427.465 924.402,422.522 924.929,418.274C925.441,414.138 925.109,409.797 923.875,405.817C922.471,401.283 919.238,394.846 916.5,391.072C914.148,387.83 910.657,385.279 907.446,383.173C904.306,381.114 900.882,379.3 897.229,378.433C893.087,377.451 886.961,377.012 882.59,377.275C878.629,377.514 874.498,378.767 871.005,380.013C867.707,381.19 864.457,382.734 861.631,384.753C858.805,386.771 856.242,389.843 854.048,392.125C852.1,394.151 848.466,398.444 848.466,398.444Z" style="fill:rgb(124,58,237);"/>
        </g>
        <g transform="matrix(0.845611,-0.095347,0.084225,0.957278,-305.032897,247.892945)">
            <path d="M1193.989,446.171C1193.989,446.171 1194.85,440.197 1194.663,437.206C1194.449,433.802 1194.281,429.14 1192.708,425.747C1191.135,422.355 1188.406,419.065 1185.226,416.85C1181.968,414.581 1177.194,412.693 1173.16,412.132C1169.13,411.57 1164.677,412.156 1161.028,413.48C1157.379,414.804 1153.146,417.751 1151.267,420.074C1149.838,421.841 1148.953,423.722 1147.619,424.968C1146.144,426.346 1144.191,427.662 1142.332,428.447C1140.14,429.372 1136.728,429.503 1133.985,429C1131.24,428.497 1128.133,427.306 1125.859,425.427C1123.585,423.549 1121.386,420.709 1120.343,417.73C1119.786,416.141 1119.391,414.546 1119.286,412.623C1119.188,410.834 1119.353,408.561 1119.776,406.927C1120.786,403.027 1123.9,397.368 1127.181,393.939C1131.206,389.732 1139.741,383.588 1147.719,380.308C1153.878,377.777 1160.351,376.822 1166.829,376.138C1173.292,375.454 1180.31,375.927 1186.313,376.875C1191.996,377.772 1197.687,379.438 1202.848,381.825C1208.009,384.212 1213.17,387.195 1217.277,391.198C1221.455,395.271 1225.438,400.634 1227.914,406.259C1230.688,412.559 1233.308,421.184 1233.917,429C1234.637,438.233 1232.864,452.581 1232.232,461.657C1231.725,468.941 1230.53,477.262 1230.126,483.459C1229.793,488.574 1229.623,495.389 1229.81,498.835C1229.909,500.664 1230.34,502.547 1231.248,504.138C1232.221,505.841 1234.42,507.642 1235.65,509.058C1236.666,510.23 1237.976,511.365 1238.57,512.798C1239.212,514.345 1239.724,516.431 1239.503,518.343C1239.228,520.73 1238.716,524.525 1236.972,526.956C1235.198,529.427 1231.693,531.648 1228.862,533.17C1226.118,534.644 1223.182,535.524 1219.984,536.086C1216.398,536.716 1210.675,536.592 1207.157,535.661C1204.014,534.829 1200.888,532.713 1198.881,530.5C1196.876,528.29 1195.67,524.47 1195.11,522.38C1194.965,521.839 1194.231,518.245 1194.231,518.245C1194.231,518.245 1191.396,521.471 1189.665,522.708C1186.993,524.616 1182.253,527.792 1178.203,529.694C1174.116,531.613 1169.679,533.413 1165.143,534.223C1160.229,535.1 1153.909,535.381 1148.714,534.96C1143.696,534.553 1138.62,533.538 1133.969,531.695C1129.317,529.852 1124.42,526.956 1120.804,523.901C1117.352,520.986 1114.511,517.294 1112.273,513.369C1109.991,509.367 1108.078,504.505 1107.112,499.888C1106.147,495.272 1105.849,490.372 1106.48,485.67C1107.182,480.439 1108.727,473.559 1111.325,468.503C1113.914,463.465 1117.818,459.083 1122.068,455.338C1126.351,451.564 1131.537,448.035 1137.023,445.859C1143.307,443.367 1153.119,441.138 1159.772,440.383C1165.467,439.737 1171.989,440.628 1176.939,441.331C1181.214,441.937 1186.631,443.789 1189.472,444.596C1191.006,445.031 1193.989,446.171 1193.989,446.171ZM1191.892,474.709C1191.892,474.709 1185.385,470.817 1181.808,469.694C1178.231,468.57 1174.25,467.905 1170.43,467.968C1166.611,468.031 1162.27,468.813 1158.891,470.071C1155.675,471.269 1152.204,473.361 1150.155,475.518C1148.25,477.523 1147.153,480.353 1146.596,483.013C1146.039,485.673 1146.102,489.017 1146.812,491.479C1147.504,493.879 1148.991,496.126 1150.856,497.788C1152.842,499.559 1155.818,501.407 1158.729,502.102C1162.189,502.929 1167.842,503.252 1171.617,502.749C1175.062,502.29 1178.456,500.943 1181.377,499.082C1184.298,497.222 1187.425,494.085 1189.142,491.587C1190.636,489.413 1191.252,486.695 1191.676,484.092C1192.135,481.279 1191.892,474.709 1191.892,474.709Z" style="fill:rgb(124,58,237);"/>
        </g>
        <g transform="matrix(0.849795,0,0,0.962015,-262.196919,139.3822)">
            <path d="M1301.39,394.84C1301.39,394.84 1306.988,388.596 1310.332,386.113C1313.71,383.606 1317.644,381.379 1321.653,379.799C1325.663,378.219 1330.025,376.928 1334.389,376.632C1339.182,376.307 1345.219,376.528 1350.408,377.849C1356.27,379.342 1363.949,381.982 1369.564,385.589C1375.178,389.196 1380.288,393.975 1384.098,399.491C1388.328,405.618 1392.716,414.464 1394.946,422.346C1397.174,430.225 1397.35,439.39 1397.473,446.78C1397.584,453.441 1396.894,460.296 1395.683,466.685C1394.489,472.982 1392.841,479.274 1390.206,485.116C1387.019,492.182 1384.001,498.297 1379.253,503.694C1374.208,509.429 1367.192,516.019 1359.936,519.524C1352.681,523.028 1342.824,524.399 1335.719,524.72C1329.493,525.002 1322.187,522.958 1317.309,521.453C1313.394,520.245 1309.444,517.776 1306.453,515.69C1303.776,513.824 1299.361,508.938 1299.361,508.938C1299.361,508.938 1300.704,554.96 1300.184,566.371C1300.006,570.272 1298.286,574.549 1296.24,577.402C1294.235,580.198 1291.107,582.228 1287.907,583.491C1284.594,584.798 1279.902,585.277 1276.363,585.247C1273.067,585.219 1269.571,584.599 1266.667,583.309C1263.764,582.02 1260.811,580.132 1258.941,577.51C1257.031,574.83 1255.206,570.876 1255.205,567.231C1255.201,555.501 1255.997,531.867 1256.515,505.404C1256.768,492.443 1257.558,478.75 1257.804,465.498C1258.373,434.902 1258.054,405.996 1258.555,392.655C1258.703,388.717 1259.792,384.634 1262.17,381.732C1264.549,378.83 1268.85,376.459 1272.827,375.244C1276.895,374.001 1282.765,373.867 1286.579,374.273C1289.811,374.618 1293.335,375.854 1295.712,377.683C1298.089,379.512 1299.896,382.388 1300.842,385.247C1301.789,388.107 1301.39,394.84 1301.39,394.84ZM1350.193,427.684C1348.245,424.858 1345.459,421.563 1342.189,419.679C1338.836,417.749 1334.286,416.033 1330.077,416.099C1325.601,416.169 1319.457,417.643 1315.332,420.101C1311.207,422.558 1307.784,426.701 1305.327,430.843C1302.869,434.986 1301.265,440.04 1300.587,444.956C1299.885,450.047 1300.447,457.05 1301.114,461.386C1301.631,464.745 1303.197,468.515 1305.075,471.348C1307.094,474.393 1309.562,477.316 1312.687,479.334C1315.675,481.265 1319.787,482.667 1323.337,482.92C1327.146,483.193 1332.412,482.748 1336.08,481.292C1339.669,479.866 1342.793,477.236 1345.348,474.34C1348.122,471.198 1351.094,466.813 1352.721,462.439C1354.353,458.051 1354.95,452.311 1355.143,448.011C1355.314,444.2 1354.704,440.024 1353.879,436.636C1353.116,433.5 1352.025,430.341 1350.193,427.684Z" style="fill:rgb(124,58,237);"/>
        </g>
        <g transform="matrix(0.848333,0.056408,-0.049828,0.96036,-238.894804,53.605518)">
            <path d="M1524.039,390.591C1528.254,393.873 1531.637,398.627 1534.132,403.038C1536.625,407.448 1538.576,412.263 1539.567,417.231C1540.567,422.238 1540.583,428.416 1540.128,433.081C1539.653,437.953 1537.923,443.801 1535.124,448.377C1532.277,453.033 1527.828,457.688 1523.045,461.017C1518.221,464.375 1512.131,466.966 1506.178,468.523C1499.168,470.357 1488.392,471.93 1480.984,472.018C1474.453,472.095 1465.871,471.191 1461.399,470.853C1458.973,470.67 1454.152,469.99 1454.152,469.99C1454.152,469.99 1454.822,477.082 1456.352,480.214C1458.006,483.6 1461.277,487.663 1464.074,490.309C1466.676,492.77 1469.738,494.947 1473.133,496.089C1477.023,497.398 1482.919,498.361 1487.412,498.16C1491.774,497.964 1496.189,496.834 1500.095,494.881C1504.035,492.911 1508.313,488.475 1511.052,486.34C1512.879,484.916 1514.704,483.168 1516.531,482.069C1518.538,480.862 1522.039,480.31 1524.684,480.732C1527.322,481.153 1530.402,482.709 1532.36,484.853C1534.541,487.24 1537.241,491.401 1537.765,495.055C1538.289,498.71 1537.301,503.229 1535.502,506.78C1533.461,510.808 1529.68,515.913 1525.519,519.225C1520.515,523.207 1512.768,528.211 1505.48,530.675C1498.024,533.195 1489.066,534.434 1480.785,534.344C1472.505,534.254 1463.167,532.637 1455.796,530.134C1448.832,527.769 1441.994,523.735 1436.559,519.328C1431.233,515.009 1426.754,509.317 1423.189,503.695C1419.654,498.121 1416.787,491.991 1415.166,485.593C1413.246,478.016 1411.525,466.907 1411.669,458.234C1411.808,449.882 1413.903,441.03 1416.029,433.556C1418.021,426.553 1420.367,419.576 1424.423,413.391C1429.525,405.61 1437.532,395.496 1446.171,390.007C1450.796,387.069 1455.902,383.902 1461.353,381.821C1466.26,379.949 1471.7,378.687 1476.303,378.073C1485.492,376.849 1496.097,377.536 1504.053,379.623C1511.404,381.55 1519.026,386.689 1524.039,390.591ZM1455.597,441.783C1455.597,441.783 1462.463,443.202 1465.95,443.401C1470.525,443.662 1478.002,444.048 1483.044,443.347C1487.599,442.714 1493.038,441.082 1496.201,439.195C1498.846,437.617 1501.073,434.656 1502.025,432.023C1502.978,429.39 1502.663,425.822 1501.917,423.395C1501.196,421.048 1499.485,418.975 1497.55,417.464C1495.42,415.801 1492.21,413.91 1489.137,413.419C1485.704,412.871 1480.591,413.06 1476.951,414.174C1473.34,415.28 1470.057,417.76 1467.298,420.106C1464.588,422.411 1462.149,425.606 1460.396,428.248C1458.827,430.614 1457.583,433.704 1456.783,435.959C1456.121,437.827 1455.597,441.783 1455.597,441.783Z" style="fill:rgb(124,58,237);"/>
        </g>
        <g transform="matrix(0.849795,0,0,0.962015,-263.044599,128.229034)">
            <g transform="matrix(1.175206,-0.016566,0.016566,1.175206,-311.013333,-44.755513)">
                <path d="M1709.257,387.706C1712.593,383.898 1720.558,374.641 1725.029,370.046C1728.48,366.5 1733.107,361.857 1736.084,360.138C1738.052,359.001 1740.925,359.149 1742.891,359.733C1744.857,360.317 1746.733,361.869 1747.879,363.643C1749.07,365.485 1750.171,368.484 1750.036,370.788C1749.901,373.092 1748.801,375.752 1747.071,377.467C1744.621,379.894 1739.235,382.696 1735.342,385.347C1730.938,388.346 1724.524,392.784 1720.648,395.458C1717.79,397.429 1714.334,400.491 1712.088,401.389C1710.556,402.002 1708.448,401.547 1707.167,400.85C1705.886,400.154 1704.763,398.536 1704.403,397.21C1704.044,395.885 1704.35,394.19 1705.01,392.896C1705.819,391.312 1707.783,389.388 1709.257,387.706Z" style="fill:rgb(124,58,237);"/>
            </g>
            <g transform="matrix(0.964018,0.672348,-0.672348,0.964018,334.321747,-1106.936421)">
                <path d="M1709.257,387.706C1712.593,383.898 1720.558,374.641 1725.029,370.046C1728.48,366.5 1733.107,361.857 1736.084,360.138C1738.052,359.001 1740.925,359.149 1742.891,359.733C1744.857,360.317 1746.733,361.869 1747.879,363.643C1749.07,365.485 1750.171,368.484 1750.036,370.788C1749.901,373.092 1748.801,375.752 1747.071,377.467C1744.621,379.894 1739.235,382.696 1735.342,385.347C1730.938,388.346 1724.524,392.784 1720.648,395.458C1717.79,397.429 1714.334,400.491 1712.088,401.389C1710.556,402.002 1708.448,401.547 1707.167,400.85C1705.886,400.154 1704.763,398.536 1704.403,397.21C1704.044,395.885 1704.35,394.19 1705.01,392.896C1705.819,391.312 1707.783,389.388 1709.257,387.706Z" style="fill:rgb(124,58,237);"/>
            </g>
            <g transform="matrix(0.444209,1.088146,-1.088146,0.444209,1377.204928,-1578.372844)">
                <path d="M1709.257,387.706C1712.593,383.898 1720.558,374.641 1725.029,370.046C1728.48,366.5 1733.107,361.857 1736.084,360.138C1738.052,359.001 1740.925,359.149 1742.891,359.733C1744.857,360.317 1746.733,361.869 1747.879,363.643C1749.07,365.485 1750.171,368.484 1750.036,370.788C1749.901,373.092 1748.801,375.752 1747.071,377.467C1744.621,379.894 1739.235,382.696 1735.342,385.347C1730.938,388.346 1724.524,392.784 1720.648,395.458C1717.79,397.429 1714.334,400.491 1712.088,401.389C1710.556,402.002 1708.448,401.547 1707.167,400.85C1705.886,400.154 1704.763,398.536 1704.403,397.21C1704.044,395.885 1704.35,394.19 1705.01,392.896C1705.819,391.312 1707.783,389.388 1709.257,387.706Z" style="fill:rgb(124,58,237);"/>
            </g>
        </g>
        <g transform="matrix(0.93705,0,0,1.060793,299.24175,-163.936157)">
            <g transform="matrix(-0.878213,-0.781105,0.781105,-0.878213,1325.95023,2031.178595)">
                <path d="M1709.257,387.706C1712.593,383.898 1720.558,374.641 1725.029,370.046C1728.48,366.5 1733.107,361.857 1736.084,360.138C1738.052,359.001 1740.925,359.149 1742.891,359.733C1744.857,360.317 1746.733,361.869 1747.879,363.643C1749.07,365.485 1750.171,368.484 1750.036,370.788C1749.901,373.092 1748.801,375.752 1747.071,377.467C1744.621,379.894 1739.235,382.696 1735.342,385.347C1730.938,388.346 1724.524,392.784 1720.648,395.458C1717.79,397.429 1714.334,400.491 1712.088,401.389C1710.556,402.002 1708.448,401.547 1707.167,400.85C1705.886,400.154 1704.763,398.536 1704.403,397.21C1704.044,395.885 1704.35,394.19 1705.01,392.896C1705.819,391.312 1707.783,389.388 1709.257,387.706Z" style="fill:rgb(252,56,78);"/>
            </g>
            <g transform="matrix(-0.25735,-1.146801,1.146801,-0.25735,132.812983,2379.186004)">
                <path d="M1709.257,387.706C1712.593,383.898 1720.558,374.641 1725.029,370.046C1728.48,366.5 1733.107,361.857 1736.084,360.138C1738.052,359.001 1740.925,359.149 1742.891,359.733C1744.857,360.317 1746.733,361.869 1747.879,363.643C1749.07,365.485 1750.171,368.484 1750.036,370.788C1749.901,373.092 1748.801,375.752 1747.071,377.467C1744.621,379.894 1739.235,382.696 1735.342,385.347C1730.938,388.346 1724.524,392.784 1720.648,395.458C1717.79,397.429 1714.334,400.491 1712.088,401.389C1710.556,402.002 1708.448,401.547 1707.167,400.85C1705.886,400.154 1704.763,398.536 1704.403,397.21C1704.044,395.885 1704.35,394.19 1705.01,392.896C1705.819,391.312 1707.783,389.388 1709.257,387.706Z" style="fill:rgb(252,56,78);"/>
            </g>
            <g transform="matrix(0.406833,-1.102665,1.102665,0.406833,-954.838238,2022.994409)">
                <path d="M1709.257,387.706C1712.593,383.898 1720.558,374.641 1725.029,370.046C1728.48,366.5 1733.107,361.857 1736.084,360.138C1738.052,359.001 1740.925,359.149 1742.891,359.733C1744.857,360.317 1746.733,361.869 1747.879,363.643C1749.07,365.485 1750.171,368.484 1750.036,370.788C1749.901,373.092 1748.801,375.752 1747.071,377.467C1744.621,379.894 1739.235,382.696 1735.342,385.347C1730.938,388.346 1724.524,392.784 1720.648,395.458C1717.79,397.429 1714.334,400.491 1712.088,401.389C1710.556,402.002 1708.448,401.547 1707.167,400.85C1705.886,400.154 1704.763,398.536 1704.403,397.21C1704.044,395.885 1704.35,394.19 1705.01,392.896C1705.819,391.312 1707.783,389.388 1709.257,387.706Z" style="fill:rgb(252,56,78);"/>
            </g>
        </g>
    </g>
</svg>
